<svg width="20" height="20" viewBox="0 0 20 20" fill="none" xmlns="http://www.w3.org/2000/svg">
<g clip-path="url(#clip0_1730_3229)">
<path d="M10 0C8.02219 0 6.08879 0.58649 4.4443 1.6853C2.79981 2.78412 1.51809 4.3459 0.761209 6.17317C0.00433286 8.00043 -0.193701 10.0111 0.192152 11.9509C0.578004 13.8907 1.53041 15.6725 2.92894 17.0711C4.32746 18.4696 6.10929 19.422 8.0491 19.8079C9.98891 20.1937 11.9996 19.9957 13.8268 19.2388C15.6541 18.4819 17.2159 17.2002 18.3147 15.5557C19.4135 13.9112 20 11.9778 20 10C19.9971 7.34872 18.9426 4.80684 17.0679 2.9321C15.1932 1.05736 12.6513 0.00286757 10 0ZM10 18.3333C8.35183 18.3333 6.74066 17.8446 5.37025 16.9289C3.99984 16.0132 2.93174 14.7117 2.30101 13.189C1.67028 11.6663 1.50525 9.99076 1.82679 8.37425C2.14834 6.75774 2.94201 5.27288 4.10745 4.10744C5.27289 2.94201 6.75774 2.14833 8.37425 1.82679C9.99076 1.50525 11.6663 1.67027 13.189 2.301C14.7118 2.93173 16.0132 3.99984 16.9289 5.37025C17.8446 6.74066 18.3333 8.35182 18.3333 10C18.3309 12.2094 17.4522 14.3276 15.8899 15.8899C14.3276 17.4522 12.2094 18.3309 10 18.3333Z" fill="white"/>
<path d="M9.99967 8.33333H9.16634C8.94533 8.33333 8.73337 8.42113 8.57709 8.57741C8.42081 8.73369 8.33301 8.94565 8.33301 9.16667C8.33301 9.38768 8.42081 9.59964 8.57709 9.75592C8.73337 9.9122 8.94533 10 9.16634 10H9.99967V15C9.99967 15.221 10.0875 15.433 10.2438 15.5893C10.4 15.7455 10.612 15.8333 10.833 15.8333C11.054 15.8333 11.266 15.7455 11.4223 15.5893C11.5785 15.433 11.6663 15.221 11.6663 15V10C11.6663 9.55797 11.4907 9.13405 11.1782 8.82149C10.8656 8.50893 10.4417 8.33333 9.99967 8.33333Z" fill="white"/>
<path d="M10 6.66667C10.6904 6.66667 11.25 6.10702 11.25 5.41667C11.25 4.72631 10.6904 4.16667 10 4.16667C9.30964 4.16667 8.75 4.72631 8.75 5.41667C8.75 6.10702 9.30964 6.66667 10 6.66667Z" fill="white"/>
</g>
<defs>
<clipPath id="clip0_1730_3229">
<rect width="20" height="20" fill="white"/>
</clipPath>
</defs>
</svg>
