<svg width="20" height="20" viewBox="0 0 20 20" fill="none" xmlns="http://www.w3.org/2000/svg">
<g clip-path="url(#clip0_1730_3241)">
<path d="M7.08368 7.91666C7.08368 8.37583 7.19035 8.81083 7.38035 9.1975C6.95916 9.73696 6.71575 10.3938 6.68369 11.0775C5.87024 10.2266 5.4165 9.09465 5.41702 7.9175C5.41799 7.23379 5.57164 6.55894 5.86674 5.9422C6.16184 5.32546 6.59095 4.7824 7.12273 4.35268C7.65451 3.92296 8.27555 3.61742 8.94049 3.45836C9.60544 3.29931 10.2975 3.29076 10.9662 3.43333C12.7012 3.79 14.107 5.1875 14.477 6.92C14.5887 7.44333 14.6095 7.95583 14.5529 8.44583C14.5264 8.64683 14.4273 8.83121 14.2742 8.96415C14.1212 9.0971 13.9247 9.16943 13.722 9.1675H13.6845C13.1912 9.1675 12.8445 8.72833 12.8987 8.23833C12.98 7.53239 12.7998 6.82112 12.3921 6.23911C11.9843 5.65711 11.3774 5.24472 10.6862 5.08C10.257 4.97719 9.81015 4.97291 9.37909 5.06747C8.94803 5.16204 8.54399 5.353 8.19728 5.62602C7.85057 5.89905 7.57019 6.24705 7.37718 6.64391C7.18417 7.04077 7.08354 7.47619 7.08285 7.9175L7.08368 7.91666ZM3.84202 6.8375C4.0719 5.50194 4.73384 4.27877 5.72618 3.35583C7.00035 2.16166 8.66869 1.57166 10.4179 1.68C13.712 1.89333 16.2879 4.77916 16.2495 8.23416C16.2337 9.68083 15.022 10.8325 13.5762 10.8325H11.5712C11.4601 10.4471 11.2134 10.1149 10.8766 9.89715C10.5397 9.67942 10.1355 9.59086 9.73851 9.64783C9.34149 9.70479 8.97848 9.90343 8.71645 10.2071C8.45443 10.5107 8.31108 10.8989 8.31285 11.3C8.31285 11.742 8.48845 12.1659 8.80101 12.4785C9.11357 12.7911 9.53749 12.9667 9.97952 12.9667C10.4279 12.9667 10.8337 12.7875 11.1329 12.4992H13.5762C15.9254 12.4992 17.8829 10.6283 17.9162 8.28C17.9779 3.92916 14.7095 0.287496 10.5254 0.0174962C9.44247 -0.0588981 8.35552 0.0903807 7.33332 0.455881C6.31113 0.821381 5.37596 1.39514 4.58702 2.14083C3.34338 3.31023 2.50919 4.84889 2.20785 6.52916C2.18771 6.64882 2.19394 6.77144 2.22611 6.88844C2.25828 7.00544 2.31562 7.114 2.39411 7.20654C2.4726 7.29908 2.57035 7.37336 2.68054 7.42419C2.79072 7.47502 2.91068 7.50118 3.03202 7.50083C3.42535 7.50083 3.77619 7.22666 3.84202 6.83833V6.8375ZM10.0004 14.1667C6.92119 14.1667 4.25702 16.0767 3.37119 18.9183C3.33853 19.0228 3.32678 19.1328 3.33663 19.2418C3.34647 19.3509 3.37771 19.4569 3.42855 19.5539C3.4794 19.6508 3.54886 19.7368 3.63296 19.807C3.71706 19.8771 3.81415 19.9299 3.91869 19.9625C4.12965 20.0268 4.35746 20.0054 4.55276 19.9029C4.74805 19.8005 4.8951 19.6252 4.96202 19.415C5.61952 17.3067 7.69035 15.8333 9.99952 15.8333C12.3087 15.8333 14.3804 17.3067 15.037 19.415C15.1029 19.6261 15.2499 19.8023 15.4457 19.905C15.6415 20.0077 15.8701 20.0284 16.0812 19.9625C16.2923 19.8966 16.4685 19.7496 16.5712 19.5538C16.6739 19.358 16.6945 19.1294 16.6287 18.9183C15.7429 16.0767 13.0787 14.1667 9.99952 14.1667H10.0004Z" fill="white"/>
</g>
<defs>
<clipPath id="clip0_1730_3241">
<rect width="20" height="20" fill="white"/>
</clipPath>
</defs>
</svg>
