<svg width="20" height="20" viewBox="0 0 20 20" fill="none" xmlns="http://www.w3.org/2000/svg">
<path d="M19.2059 14.3309L15.6076 17.61C13.9203 19.1494 11.7182 20.002 9.43425 20H0.833422C0.612408 20 0.400447 19.9122 0.244166 19.7559C0.0878859 19.5997 8.85306e-05 19.3877 8.85306e-05 19.1667C8.85306e-05 18.9457 0.0878859 18.7337 0.244166 18.5774C0.400447 18.4211 0.612408 18.3334 0.833422 18.3334H9.43342C11.3022 18.3349 13.1039 17.6372 14.4843 16.3775L18.0543 13.1259C18.3434 12.8359 18.4126 12.3392 18.1843 12.0225C18.1136 11.922 18.0218 11.8383 17.9152 11.7773C17.8087 11.7162 17.69 11.6793 17.5676 11.6692C17.4472 11.6604 17.3264 11.6775 17.2132 11.7192C17.0999 11.7608 16.9969 11.8262 16.9109 11.9109L13.3826 15.1492C12.9194 15.5887 12.3052 15.8336 11.6668 15.8334H7.50009C7.27907 15.8334 7.06711 15.7456 6.91083 15.5893C6.75455 15.433 6.66675 15.221 6.66675 15C6.66675 14.779 6.75455 14.567 6.91083 14.4108C7.06711 14.2545 7.27907 14.1667 7.50009 14.1667H11.6668C11.8768 14.1667 12.5001 14.0709 12.5001 13.3334C12.5001 13.1123 12.4123 12.9004 12.256 12.7441C12.0997 12.5878 11.8878 12.5 11.6668 12.5H7.57342C6.58815 12.4976 5.61216 12.6905 4.70188 13.0675C3.7916 13.4446 2.96508 13.9983 2.27009 14.6967L1.43842 15.5742C1.36369 15.6558 1.27345 15.7217 1.17297 15.7681C1.07249 15.8144 0.963787 15.8403 0.853195 15.8442C0.742603 15.8481 0.632341 15.83 0.528844 15.7908C0.425347 15.7516 0.330688 15.6922 0.250391 15.6161C0.170094 15.54 0.105767 15.4486 0.0611649 15.3473C0.0165625 15.246 -0.00742226 15.1369 -0.00938975 15.0262C-0.0113572 14.9156 0.00873196 14.8057 0.0497055 14.7029C0.0906791 14.6001 0.151716 14.5065 0.229255 14.4275L1.07676 13.535C1.92708 12.6772 2.93931 11.9968 4.05469 11.5333C5.17008 11.0698 6.36641 10.8325 7.57425 10.835H11.6676C12.6976 10.835 13.5843 11.4617 13.9668 12.3534L15.7593 10.7084C16.0131 10.4582 16.3183 10.2661 16.6537 10.1454C16.9891 10.0247 17.3467 9.97819 17.7018 10.0092C18.4351 10.0675 19.1043 10.4467 19.5376 11.0492C20.2409 12.0275 20.0984 13.4375 19.2068 14.3317L19.2059 14.3309ZM3.33842 1.80168C3.32136 1.56146 3.3563 1.32038 3.44086 1.09489C3.52542 0.869396 3.65761 0.664788 3.82842 0.495016C3.99786 0.323507 4.20254 0.19086 4.4283 0.106254C4.65405 0.0216494 4.8955 -0.0128935 5.13592 0.00501619C7.53342 0.174183 9.12342 1.00085 10.0001 2.59835C10.8776 1.00085 12.4668 0.174183 14.8651 0.00501619C15.1055 -0.014024 15.3471 0.0199962 15.5729 0.10467C15.7987 0.189343 16.0032 0.322601 16.1718 0.495016C16.5184 0.84085 16.6968 1.31752 16.6618 1.80252C16.4026 5.48002 14.5951 7.25668 10.8334 7.47585V8.33252C10.8334 8.55353 10.7456 8.76549 10.5893 8.92177C10.4331 9.07805 10.2211 9.16585 10.0001 9.16585C9.77907 9.16585 9.56711 9.07805 9.41083 8.92177C9.25455 8.76549 9.16675 8.55353 9.16675 8.33252V7.47585C5.40509 7.25585 3.59759 5.48002 3.33842 1.80168ZM10.8601 5.80668C13.6609 5.62002 14.8051 4.44252 15.0001 1.68502C12.2259 1.86335 11.0468 3.00585 10.8601 5.80668ZM5.01759 1.66668C5.19592 4.44085 6.33842 5.62002 9.13925 5.80668C8.95259 3.00585 7.77509 1.86168 5.01759 1.66668Z" fill="white"/>
</svg>
