<svg width="20" height="18" viewBox="0 0 20 18" fill="none" xmlns="http://www.w3.org/2000/svg">
<path d="M19.6894 14.2851L12.0391 1.40626C11.6172 0.656219 10.8554 0.210907 9.99999 0.210907C9.14456 0.210907 8.3828 0.656219 7.96093 1.3945L0.300457 14.2969C-0.109738 15.0352 -0.0980196 15.9024 0.323934 16.6289C0.745809 17.3555 1.50745 17.7891 2.33952 17.7891H17.6621C18.4941 17.7891 19.2558 17.3555 19.6776 16.6289C20.0996 15.9023 20.1113 15.0352 19.6894 14.2851Z" fill="#FFD400"/>
<path d="M19.6776 16.6289C19.2557 17.3554 18.4941 17.789 17.662 17.789H10V0.210907C10.8554 0.210907 11.6172 0.656219 12.0391 1.40626L19.6894 14.2852C20.1113 15.0352 20.0996 15.9023 19.6776 16.6289Z" fill="#FDBF00"/>
<path d="M8.82812 12.5156H11.1719V14.8593H8.82812V12.5156ZM8.82812 5.48434H11.1719V11.3437H8.82812V5.48434Z" fill="#4A696F"/>
<path d="M10 5.48434H11.1719V11.3437H10V5.48434ZM10 12.5156H11.1719V14.8593H10V12.5156Z" fill="#3E5959"/>
</svg>
