<svg width="20" height="20" viewBox="0 0 20 20" fill="none" xmlns="http://www.w3.org/2000/svg">
<path d="M16.3508 18.9974C16.0733 18.9966 15.7988 18.9409 15.5431 18.8334C15.2873 18.726 15.0554 18.5689 14.8607 18.3712L10.2489 13.7864L5.63706 18.3742C5.34088 18.6747 4.96103 18.879 4.54704 18.9605C4.13304 19.042 3.70411 18.9968 3.31615 18.8309C2.92435 18.6733 2.58917 18.4012 2.35438 18.0502C2.1196 17.6992 1.99613 17.2855 2.00009 16.8632V4.74946C2.00009 3.75504 2.39512 2.80135 3.09828 2.09819C3.80144 1.39503 4.75513 1 5.74955 1L14.7482 1C15.2406 1 15.7282 1.09698 16.1831 1.28541C16.638 1.47384 17.0513 1.75002 17.3995 2.09819C17.7477 2.44636 18.0239 2.8597 18.2123 3.3146C18.4007 3.76951 18.4977 4.25707 18.4977 4.74946V16.8632C18.5019 17.2851 18.3789 17.6986 18.1446 18.0496C17.9104 18.4006 17.5759 18.6728 17.1846 18.8309C16.9205 18.9414 16.637 18.998 16.3508 18.9974ZM5.74955 2.49978C5.1529 2.49978 4.58068 2.7368 4.15879 3.1587C3.73689 3.58059 3.49987 4.15281 3.49987 4.74946V16.8632C3.4996 16.9882 3.53637 17.1104 3.60553 17.2145C3.6747 17.3185 3.77315 17.3998 3.88846 17.4479C4.00377 17.4961 4.13076 17.509 4.2534 17.485C4.37603 17.461 4.4888 17.4012 4.57747 17.3131L9.72397 12.1981C9.86447 12.0585 10.0545 11.9801 10.2526 11.9801C10.4508 11.9801 10.6408 12.0585 10.7813 12.1981L15.9218 17.3116C16.0105 17.3997 16.1233 17.4595 16.2459 17.4835C16.3685 17.5075 16.4955 17.4946 16.6108 17.4464C16.7261 17.3983 16.8246 17.317 16.8938 17.213C16.9629 17.1089 16.9997 16.9867 16.9994 16.8617V4.74946C16.9994 4.15281 16.7624 3.58059 16.3405 3.1587C15.9186 2.7368 15.3464 2.49978 14.7497 2.49978H5.74955Z" fill="white"/>
</svg>
