<svg width="20" height="20" viewBox="0 0 20 20" fill="none" xmlns="http://www.w3.org/2000/svg">
<g clip-path="url(#clip0_1730_3271)">
<path d="M16.1667 7.02009V5.83342C16.1667 4.28633 15.5521 2.8026 14.4581 1.70864C13.3642 0.614673 11.8804 9.15527e-05 10.3333 9.15527e-05C8.78624 9.15527e-05 7.30251 0.614673 6.20854 1.70864C5.11458 2.8026 4.5 4.28633 4.5 5.83342V7.02009C3.7578 7.34401 3.12608 7.87719 2.68208 8.55443C2.23809 9.23167 2.00107 10.0236 2 10.8334V15.8334C2.00132 16.9381 2.44073 17.9971 3.22185 18.7782C4.00296 19.5594 5.062 19.9988 6.16667 20.0001H14.5C15.6047 19.9988 16.6637 19.5594 17.4448 18.7782C18.2259 17.9971 18.6653 16.9381 18.6667 15.8334V10.8334C18.6656 10.0236 18.4286 9.23167 17.9846 8.55443C17.5406 7.87719 16.9089 7.34401 16.1667 7.02009ZM6.16667 5.83342C6.16667 4.72836 6.60565 3.66855 7.38706 2.88715C8.16846 2.10575 9.22826 1.66676 10.3333 1.66676C11.4384 1.66676 12.4982 2.10575 13.2796 2.88715C14.061 3.66855 14.5 4.72836 14.5 5.83342V6.66676H6.16667V5.83342ZM17 15.8334C17 16.4965 16.7366 17.1324 16.2678 17.6012C15.7989 18.07 15.163 18.3334 14.5 18.3334H6.16667C5.50363 18.3334 4.86774 18.07 4.3989 17.6012C3.93006 17.1324 3.66667 16.4965 3.66667 15.8334V10.8334C3.66667 10.1704 3.93006 9.5345 4.3989 9.06566C4.86774 8.59682 5.50363 8.33342 6.16667 8.33342H14.5C15.163 8.33342 15.7989 8.59682 16.2678 9.06566C16.7366 9.5345 17 10.1704 17 10.8334V15.8334Z" fill="white"/>
<path d="M10.3333 11.6666C10.1123 11.6666 9.90036 11.7544 9.74408 11.9107C9.5878 12.067 9.5 12.2789 9.5 12.5V14.1666C9.5 14.3876 9.5878 14.5996 9.74408 14.7559C9.90036 14.9122 10.1123 15 10.3333 15C10.5543 15 10.7663 14.9122 10.9226 14.7559C11.0789 14.5996 11.1667 14.3876 11.1667 14.1666V12.5C11.1667 12.2789 11.0789 12.067 10.9226 11.9107C10.7663 11.7544 10.5543 11.6666 10.3333 11.6666Z" fill="white"/>
</g>
<defs>
<clipPath id="clip0_1730_3271">
<rect width="20" height="20" fill="white"/>
</clipPath>
</defs>
</svg>
