<svg width="20" height="20" viewBox="0 0 20 20" fill="none" xmlns="http://www.w3.org/2000/svg">
<g clip-path="url(#clip0_1730_3282)">
<path d="M19.4361 8.04654L16.5269 3.06072C16.1599 2.43457 15.6359 1.91507 15.0066 1.55362C14.3773 1.19218 13.6645 1.00131 12.9387 0.999908H7.06293C6.33713 1.0015 5.62429 1.19244 4.99487 1.55386C4.36544 1.91528 3.84121 2.43467 3.47397 3.06072L0.564742 8.04654C0.194857 8.68228 0 9.40466 0 10.1402C0 10.8757 0.194857 11.5981 0.564742 12.2338L3.47397 17.2196C3.84089 17.8458 4.36493 18.3653 4.99426 18.7267C5.62358 19.0882 6.33637 19.279 7.0621 19.2804H12.9379C14.4095 19.2804 15.7848 18.491 16.5269 17.2196L19.4353 12.2338C19.8051 11.5981 20 10.8757 20 10.1402C20 9.40466 19.806 8.68228 19.4361 8.04654ZM17.9993 11.3962L15.0918 16.382C14.8714 16.7578 14.5568 17.0695 14.1791 17.2864C13.8013 17.5032 13.3735 17.6177 12.9379 17.6185H7.0621C6.62664 17.6176 6.19895 17.5031 5.82133 17.2863C5.44371 17.0694 5.12925 16.7577 4.90906 16.382L2.00066 11.3962C1.77863 11.0148 1.66165 10.5814 1.66165 10.1402C1.66165 9.6989 1.77863 9.26551 2.00066 8.88416L4.90823 3.89833C5.12855 3.52258 5.44315 3.21085 5.82092 2.99399C6.19868 2.77712 6.62652 2.66263 7.0621 2.66185H12.9379C13.3734 2.6627 13.8011 2.77722 14.1787 2.99408C14.5563 3.21095 14.8708 3.52264 15.0909 3.89833L17.9993 8.88416C18.2214 9.26551 18.3384 9.6989 18.3384 10.1402C18.3384 10.5814 18.2214 11.0148 17.9993 11.3962ZM14.1669 10.1398C14.1669 10.3601 14.0794 10.5715 13.9235 10.7273C13.7677 10.8832 13.5563 10.9707 13.3359 10.9707H6.68817C6.46778 10.9707 6.25642 10.8832 6.10058 10.7273C5.94474 10.5715 5.85719 10.3601 5.85719 10.1398C5.85719 9.91937 5.94474 9.70801 6.10058 9.55217C6.25642 9.39633 6.46778 9.30878 6.68817 9.30878H13.3359C13.5563 9.30878 13.7677 9.39633 13.9235 9.55217C14.0794 9.70801 14.1669 9.91937 14.1669 10.1398Z" fill="white"/>
</g>
<defs>
<clipPath id="clip0_1730_3282">
<rect width="20" height="20" fill="white"/>
</clipPath>
</defs>
</svg>
