<svg width="14" height="24" viewBox="0 0 14 24" fill="none" xmlns="http://www.w3.org/2000/svg">
<path d="M8.06048 10.5004V5.16769C9.20117 5.3603 10.2776 5.82833 11.1965 6.53116C11.3795 6.65678 11.5957 6.72531 11.8176 6.72808C12.5312 6.72808 13.113 6.15391 13.1205 5.44037C13.122 5.13432 13.0022 4.84015 12.7872 4.6223C11.4581 3.4842 9.79228 2.81362 8.04534 2.71343V0.925745C8.04534 0.415177 7.63176 0.00159529 7.12119 0.00159529C7.1106 9.5279e-05 7.09996 9.5279e-05 7.08936 9.5279e-05C6.57125 -0.00749855 6.14402 0.406131 6.13643 0.925745V2.65282C2.72774 2.89522 0.409844 5.00105 0.409844 7.80373C0.409844 11.2427 3.33375 12.1972 6.13643 12.9546V19.0146C4.65779 18.8161 3.26404 18.2025 2.12173 17.2421C1.90662 17.0709 1.63995 16.9754 1.36423 16.9694C0.665831 17.0179 0.128028 17.6026 0.137075 18.3026C0.13556 18.6086 0.255405 18.9028 0.47036 19.1206C2.03487 20.5296 4.04721 21.3399 6.15152 21.4083V23.0747C6.15152 23.0853 6.15302 23.096 6.15302 23.1066C6.17726 23.6247 6.61812 24.0246 7.13624 23.9989C7.6468 23.9989 8.06039 23.5853 8.06039 23.0747V21.378C12.1963 21.1053 13.8627 18.5904 13.8627 15.9241C13.8628 12.3487 10.8632 11.2579 8.06048 10.5004ZM6.15162 10.0156C4.50029 9.53081 3.21257 9.03089 3.21257 7.62195C3.21257 6.21302 4.37912 5.19797 6.15162 5.06166V10.0156ZM8.06048 19.0448V13.5304C9.77242 14.0152 11.1056 14.6666 11.0904 16.2573C11.0904 17.4087 10.3026 18.7722 8.06048 19.0448Z" fill="#0170B7"/>
</svg>
