<svg width="18" height="18" viewBox="0 0 18 18" fill="none" xmlns="http://www.w3.org/2000/svg">
<path d="M11.0595 1.38977L11.7963 0.653023C12.667 -0.217674 14.1823 -0.217674 15.053 0.653023L15.6474 1.24744C15.8619 1.46008 16.0321 1.71308 16.1483 1.99185C16.2644 2.27062 16.3242 2.56963 16.3242 2.87163C16.3242 3.17363 16.2644 3.47264 16.1483 3.75141C16.0321 4.03017 15.8619 4.28318 15.6474 4.49581L14.9107 5.23256L11.0595 1.3814V1.38977ZM10.1721 2.27721L2.54512 9.90419C2.30233 10.147 2.15163 10.4651 2.12651 10.8084L1.90047 13.2614C1.87535 13.5712 1.98419 13.8726 2.20186 14.0986C2.40279 14.2995 2.66233 14.4084 2.9386 14.4084H3.0307L5.48372 14.1823C5.82698 14.1488 6.14512 13.9981 6.38791 13.7553L14.0149 6.12837L10.1637 2.27721H10.1721ZM18 17.0791C18 16.7358 17.7153 16.4512 17.3721 16.4512H0.627907C0.284651 16.4512 0 16.7358 0 17.0791C0 17.4223 0.284651 17.707 0.627907 17.707H17.3721C17.7153 17.707 18 17.4223 18 17.0791Z" fill="#31584D"/>
</svg>
