<svg width="20" height="21" viewBox="0 0 20 21" fill="none" xmlns="http://www.w3.org/2000/svg">
<path d="M12.1614 4.04126L12.9785 3.22421C13.9441 2.2586 15.6246 2.2586 16.5902 3.22421L17.2494 3.88342C17.4872 4.11924 17.676 4.39982 17.8048 4.70897C17.9337 5.01813 18 5.34973 18 5.68465C18 6.01957 17.9337 6.35118 17.8048 6.66033C17.676 6.96949 17.4872 7.25007 17.2494 7.48588L16.4324 8.30294L12.1614 4.03198V4.04126ZM11.1772 5.02544L2.71886 13.4838C2.44961 13.7531 2.28248 14.1059 2.25463 14.4866L2.00394 17.207C1.97609 17.5505 2.09679 17.8848 2.33819 18.1354C2.56102 18.3583 2.84885 18.479 3.15524 18.479H3.25737L5.97779 18.2283C6.35847 18.1911 6.71128 18.024 6.98054 17.7548L15.4389 9.2964L11.1679 5.02544H11.1772Z" fill="white"/>
</svg>
