<svg width="150" height="134" viewBox="0 0 150 134" fill="none" xmlns="http://www.w3.org/2000/svg">
<path d="M149.965 131.361L138.18 66.4359C138.122 66.1158 137.994 65.8125 137.804 65.548C137.615 65.2835 137.369 65.0643 137.085 64.9063L107.424 48.4092C107.046 48.2 106.614 48.1072 106.184 48.1423L111.58 117.754L111.399 117.835L146.896 133.76C147.262 133.924 147.666 133.986 148.064 133.937C148.462 133.889 148.839 133.733 149.155 133.485C149.471 133.239 149.713 132.91 149.856 132.536C149.999 132.162 150.036 131.755 149.965 131.361ZM75.0001 64.1803L44.6646 48.3802C44.3062 48.1947 43.9036 48.1115 43.501 48.14C43.6061 48.1335 43.7119 48.1341 43.8168 48.1423L38.4206 117.754L74.0986 133.76C74.3822 133.887 74.6894 133.953 75.0001 133.953V64.1803Z" fill="#44C868"/>
<path d="M43.8164 48.1426C43.3857 48.1075 42.9542 48.2002 42.576 48.4092L12.9149 64.9063C12.6306 65.0643 12.3848 65.2835 12.1953 65.548C12.0059 65.8125 11.8776 66.1157 11.8195 66.4359L0.0354483 131.361C-0.0360674 131.755 0.00154129 132.162 0.144209 132.536C0.286877 132.91 0.529178 133.239 0.844921 133.486C1.16071 133.733 1.53796 133.889 1.93597 133.937C2.33398 133.985 2.73764 133.924 3.10342 133.76L38.4073 117.922L43.8164 48.1426ZM106.183 48.1411C105.887 48.1629 105.599 48.2444 105.335 48.3808L75 64.1806V133.953H75.0003C75.3111 133.953 75.6183 133.888 75.9018 133.76L111.58 117.754L106.183 48.1411Z" fill="#4CE166"/>
<path d="M8.24825 86.1114L5.8544 99.3005L41.3019 80.5781L42.1248 69.9612L42.2613 68.2004L8.24825 86.1114Z" fill="#FFDB56"/>
<path d="M41.6209 76.4613L41.3019 80.5781L5.85439 99.3006L0.0354483 131.361C-0.0360674 131.755 0.00154129 132.162 0.144209 132.536C0.286877 132.911 0.529178 133.239 0.844921 133.486C1.16071 133.733 1.53796 133.889 1.93597 133.937C2.33398 133.986 2.73764 133.924 3.10342 133.76L38.4073 117.922L41.6209 76.4613Z" fill="#A8EEFC"/>
<path d="M75.0089 72.8829L42.2614 68.2004L41.3019 80.5781L75.0001 131.754V113.145L54.8916 81.4813L75.0089 83.8874V72.8829ZM134.75 63.6078L120.501 55.6827L107.012 58.8345L107.181 61.013L107.847 69.607L134.75 63.6078Z" fill="#FFBB24"/>
<path d="M109.044 85.04L107.766 68.5608L107.013 58.8345L75.0089 72.883V83.8875L95.914 74.7966L109.044 85.04Z" fill="#FFDB56"/>
<path d="M149.965 131.361L147.005 115.053L107.848 69.607L109.044 85.04L149.201 133.445C149.502 133.196 149.731 132.872 149.865 132.506C150 132.14 150.034 131.745 149.965 131.361Z" fill="#FFBB24"/>
<path d="M75.141 0.0464172C58.1596 0.0464172 44.3441 13.8505 44.3441 30.8181C44.3441 41.314 49.3272 52.5827 59.1554 64.3109C66.3739 72.925 73.4942 78.4654 73.7939 78.6971C74.1796 78.9956 74.6536 79.1574 75.1413 79.1571C75.629 79.1574 76.1029 78.9956 76.4886 78.6971C76.7881 78.4654 83.9087 72.925 91.1271 64.3109C100.955 52.5827 105.938 41.3143 105.938 30.8181C105.938 13.8505 92.1223 0.0464172 75.141 0.0464172ZM86.5463 30.8178C86.5463 37.1114 81.4398 42.2137 75.141 42.2137C68.8422 42.2137 63.7357 37.1116 63.7357 30.8178C63.7357 24.524 68.8422 19.4219 75.141 19.4219C81.4398 19.4219 86.5463 24.5242 86.5463 30.8178Z" fill="#FF4A4A"/>
<path d="M75.1411 0.0464172C73.7952 0.0464172 72.4695 0.133722 71.1687 0.301886C86.2809 2.25511 97.9935 15.1952 97.9935 30.8181C97.9935 41.314 93.0104 52.5827 83.1822 64.3109C78.5401 69.8503 73.9419 74.1156 71.169 76.5186C72.7083 77.8522 73.6874 78.6145 73.794 78.6971C74.1797 78.9956 74.6537 79.1574 75.1414 79.1571C75.6291 79.1574 76.103 78.9956 76.4887 78.6971C76.7881 78.4654 83.9087 72.925 91.1272 64.3109C100.955 52.5827 105.939 41.3143 105.939 30.8181C105.938 13.8505 92.1224 0.0464172 75.1411 0.0464172Z" fill="#E7343F"/>
<path d="M75.9019 133.76L89.169 127.808L75.0001 113.145V133.953H75.0004C75.3112 133.953 75.6184 133.888 75.9019 133.76Z" fill="#FFDB56"/>
<path d="M138.18 66.4359C138.122 66.1158 137.993 65.8125 137.804 65.548C137.615 65.2835 137.369 65.0644 137.085 64.9063L134.75 63.6076L107.847 69.6067L147.004 115.052L138.18 66.4359ZM74.9998 133.953C75.0001 133.953 75.0001 133.953 74.9998 133.953V131.754L41.3019 80.5781L38.42 117.754L74.098 133.76C74.3816 133.888 74.6889 133.953 74.9998 133.953Z" fill="#1EA4E9"/>
</svg>
