<svg width="20" height="20" viewBox="0 0 20 20" fill="none" xmlns="http://www.w3.org/2000/svg">
<g clip-path="url(#clip0_1730_3324)">
<path d="M16.6663 6.66667C18.5046 6.66667 19.9996 5.17167 19.9996 3.33333C19.9996 1.495 18.5046 8.55483e-07 16.6663 8.55483e-07C14.8279 8.55483e-07 13.3329 1.495 13.3329 3.33333C13.3329 5.17167 14.8279 6.66667 16.6663 6.66667ZM16.6663 1.66667C17.5854 1.66667 18.3329 2.41417 18.3329 3.33333C18.3329 4.2525 17.5854 5 16.6663 5C15.7471 5 14.9996 4.2525 14.9996 3.33333C14.9996 2.41417 15.7471 1.66667 16.6663 1.66667ZM18.2229 8.58417C18.171 8.36982 18.0369 8.18452 17.8494 8.06834C17.662 7.95216 17.4363 7.91444 17.2213 7.96333C17.0061 8.01384 16.8198 8.14775 16.7034 8.3356C16.587 8.52344 16.5499 8.74985 16.6004 8.965L17.4813 12.7058C17.5572 12.9743 17.5693 13.2568 17.5165 13.5307C17.4637 13.8046 17.3474 14.0624 17.1771 14.2833C17.0063 14.5074 16.7859 14.6887 16.5331 14.8131C16.2803 14.9374 16.0021 15.0014 15.7204 15H4.27876C3.72043 15 3.20043 14.7525 2.85209 14.3208C2.68395 14.1158 2.56383 13.8757 2.50052 13.6181C2.43722 13.3606 2.43235 13.0922 2.48626 12.8325L4.23126 6.35167C4.84793 3.59333 7.26626 1.6675 10.1113 1.6675C10.4696 1.6675 10.8271 1.69917 11.1738 1.7625C11.3913 1.80195 11.6157 1.75335 11.7974 1.62739C11.9792 1.50143 12.1035 1.30842 12.1429 1.09083C12.1824 0.873246 12.1338 0.648898 12.0078 0.467144C11.8819 0.28539 11.6888 0.161118 11.4713 0.121668C11.0222 0.0405035 10.5668 -0.000215227 10.1104 8.55483e-07C6.47959 8.55483e-07 3.39293 2.4625 2.61293 5.95333L0.867926 12.4333C0.752958 12.9425 0.755023 13.4711 0.873965 13.9794C0.992908 14.4876 1.22563 14.9622 1.55459 15.3675C1.88209 15.7746 2.29699 16.1029 2.76855 16.3279C3.24011 16.5529 3.75626 16.669 4.27876 16.6675H5.91709C6.30459 18.5667 7.98709 20.0008 9.99959 20.0008C12.0121 20.0008 13.6946 18.5667 14.0821 16.6675H15.7196C16.8196 16.6675 17.8338 16.1675 18.5004 15.2958C18.8261 14.8757 19.0494 14.3855 19.1525 13.864C19.2557 13.3425 19.2358 12.8041 19.0946 12.2917L18.2229 8.585V8.58417ZM9.99959 18.3333C9.48426 18.3317 8.98206 18.1706 8.56191 17.8722C8.14176 17.5738 7.82424 17.1527 7.65293 16.6667H12.3454C12.1741 17.1527 11.8566 17.5738 11.4364 17.8722C11.0163 18.1706 10.5141 18.3317 9.99876 18.3333H9.99959Z" fill="white"/>
</g>
<defs>
<clipPath id="clip0_1730_3324">
<rect width="20" height="20" fill="white"/>
</clipPath>
</defs>
</svg>
