<svg width="44" height="46" viewBox="0 0 44 46" fill="none" xmlns="http://www.w3.org/2000/svg">
<path d="M1.92797 45.5159H1.82397C1.14797 45.4639 0.679967 44.8919 0.731967 44.2679C1.40797 34.3359 10.768 26.5879 22 26.5879C33.232 26.5879 42.592 34.3359 43.268 44.2159C43.32 44.8919 42.8 45.4119 42.176 45.4639C41.5 45.5159 40.98 44.9959 40.928 44.3719C40.304 35.6879 31.984 28.9279 22 28.9279C11.964 28.9279 3.64397 35.7399 3.07197 44.4239C3.01997 45.0479 2.49997 45.5159 1.92797 45.5159ZM22 24.1959C15.448 24.1959 10.144 18.8919 10.144 12.3399C10.144 5.78789 15.448 0.483887 22 0.483887C28.552 0.483887 33.856 5.78789 33.856 12.3399C33.856 18.8919 28.552 24.1959 22 24.1959ZM22 2.87589C16.8 2.87589 12.536 7.13989 12.536 12.3399C12.536 17.5399 16.8 21.8039 22 21.8039C27.2 21.8039 31.464 17.5399 31.464 12.3399C31.464 7.13989 27.2 2.87589 22 2.87589Z" fill="#253B3D" stroke="#253B3D" stroke-width="0.5"/>
</svg>
