<svg width="20" height="20" viewBox="0 0 20 20" fill="none" xmlns="http://www.w3.org/2000/svg">
<g clip-path="url(#clip0_1730_3251)">
<path d="M9.99416 18.3227H4.16423C2.7867 18.3227 1.66569 17.2017 1.66569 15.8242V4.16433C1.66569 2.7868 2.7867 1.66579 4.16423 1.66579H7.92454C8.06029 1.66579 8.19521 1.67245 8.32847 1.68494V5.83002C8.32847 7.20755 9.44948 8.32856 10.827 8.32856H15.6683C15.7953 8.32859 15.9206 8.29959 16.0347 8.24377C16.1487 8.18794 16.2485 8.10678 16.3264 8.00649C16.4043 7.90619 16.4582 7.78942 16.484 7.66509C16.5098 7.54077 16.5069 7.41218 16.4754 7.28917C16.2162 6.27525 15.6889 5.34978 14.9488 4.6099L12.0471 1.70826C11.507 1.1651 10.8646 0.734453 10.1569 0.441246C9.44928 0.148039 8.69051 -0.00190404 7.92454 9.60423e-05H4.16423C1.86807 9.60423e-05 0 1.86817 0 4.16433V15.8242C0 18.1203 1.86807 19.9884 4.16423 19.9884H9.99416C10.215 19.9884 10.4269 19.9007 10.5831 19.7445C10.7393 19.5883 10.827 19.3765 10.827 19.1556C10.827 18.9347 10.7393 18.7228 10.5831 18.5667C10.4269 18.4105 10.215 18.3227 9.99416 18.3227ZM9.99416 2.21464C10.3106 2.3962 10.6038 2.62106 10.8695 2.88591L13.7711 5.78755C14.0326 6.04906 14.2575 6.34389 14.4407 6.66287H10.827C10.6061 6.66287 10.3943 6.57512 10.2381 6.41893C10.0819 6.26275 9.99416 6.05091 9.99416 5.83002V2.21464ZM9.16131 14.9913C9.16131 15.2122 9.07357 15.4241 8.91738 15.5802C8.76119 15.7364 8.54935 15.8242 8.32847 15.8242H4.16423C3.94335 15.8242 3.73151 15.7364 3.57532 15.5802C3.41913 15.4241 3.33139 15.2122 3.33139 14.9913C3.33139 14.7705 3.41913 14.5586 3.57532 14.4024C3.73151 14.2462 3.94335 14.1585 4.16423 14.1585H8.32847C8.54935 14.1585 8.76119 14.2462 8.91738 14.4024C9.07357 14.5586 9.16131 14.7705 9.16131 14.9913ZM9.16131 11.66C9.16131 11.8808 9.07357 12.0927 8.91738 12.2489C8.76119 12.4051 8.54935 12.4928 8.32847 12.4928H4.16423C3.94335 12.4928 3.73151 12.4051 3.57532 12.2489C3.41913 12.0927 3.33139 11.8808 3.33139 11.66C3.33139 11.4391 3.41913 11.2272 3.57532 11.071C3.73151 10.9148 3.94335 10.8271 4.16423 10.8271H8.32847C8.54935 10.8271 8.76119 10.9148 8.91738 11.071C9.07357 11.2272 9.16131 11.4391 9.16131 11.66ZM18.8473 10.2566L15.67 9.20305C15.5 9.14641 15.3162 9.14641 15.1461 9.20305L11.9688 10.2566C11.6366 10.3662 11.3475 10.5778 11.1426 10.8614C10.9377 11.1449 10.8276 11.4859 10.8278 11.8357V14.6041C10.8278 17.5773 13.9219 19.3538 14.8671 19.826C14.8671 19.826 15.122 20.0001 15.4093 20.0001C15.6967 20.0001 15.894 19.8702 15.894 19.8702C16.8543 19.4837 19.9892 17.9613 19.9892 14.6049V11.8365C19.9892 11.1186 19.5303 10.4831 18.8482 10.2574L18.8473 10.2566ZM18.3226 14.6049C18.3226 16.7545 16.3046 17.873 15.446 18.2519C14.6848 17.8438 12.4927 16.5046 12.4927 14.6049V11.8382L15.4077 10.8721L18.3226 11.8365V14.6049Z" fill="white"/>
</g>
<defs>
<clipPath id="clip0_1730_3251">
<rect width="20" height="20" fill="white"/>
</clipPath>
</defs>
</svg>
