<svg width="20" height="20" viewBox="0 0 20 20" fill="none" xmlns="http://www.w3.org/2000/svg">
<g clip-path="url(#clip0_1860_407)">
<path d="M9.99985 13.3333C11.8382 13.3333 13.3332 11.8383 13.3332 10C13.3332 8.16167 11.8382 6.66667 9.99985 6.66667C8.16152 6.66667 6.66652 8.16167 6.66652 10C6.66652 11.8383 8.16152 13.3333 9.99985 13.3333ZM9.99985 8.33334C10.919 8.33334 11.6665 9.08084 11.6665 10C11.6665 10.9192 10.919 11.6667 9.99985 11.6667C9.08069 11.6667 8.33319 10.9192 8.33319 10C8.33319 9.08084 9.08069 8.33334 9.99985 8.33334ZM14.9999 19.1667C14.9999 19.3877 14.9121 19.5997 14.7558 19.7559C14.5995 19.9122 14.3875 20 14.1665 20C13.9455 20 13.7335 19.9122 13.5773 19.7559C13.421 19.5997 13.3332 19.3877 13.3332 19.1667C13.3332 17.3283 11.8382 15.8333 9.99985 15.8333C8.16152 15.8333 6.66652 17.3283 6.66652 19.1667C6.66652 19.3877 6.57872 19.5997 6.42244 19.7559C6.26616 19.9122 6.0542 20 5.83319 20C5.61217 20 5.40021 19.9122 5.24393 19.7559C5.08765 19.5997 4.99985 19.3877 4.99985 19.1667C4.99985 16.4092 7.24235 14.1667 9.99985 14.1667C12.7574 14.1667 14.9999 16.4092 14.9999 19.1667ZM4.83402 7.93251C5.01402 8.42334 4.39819 8.88084 3.97985 8.56834L2.88902 7.80834L1.80152 8.56834C1.38652 8.88001 0.774853 8.43001 0.949853 7.94084L1.33735 6.72751L0.32152 6.02001C-0.12598 5.72917 0.109853 4.96917 0.644853 4.98667H1.97402L2.28319 3.80251C2.42319 3.18751 3.36152 3.18834 3.50152 3.80251L3.81069 4.98667H5.13152C5.66485 4.96917 5.89985 5.72417 5.45402 6.01501L4.43652 6.72584L4.83319 7.93167L4.83402 7.93251ZM19.7565 6.01584L18.739 6.72667L19.1357 7.93251C19.3157 8.42334 18.6999 8.88084 18.2815 8.56834L17.1907 7.80834L16.1032 8.56834C15.6882 8.88001 15.0774 8.42917 15.2515 7.94084L15.639 6.72751L14.6232 6.02001C14.1757 5.72917 14.4115 4.96917 14.9465 4.98667H16.2757L16.5849 3.80251C16.7249 3.18751 17.6632 3.18834 17.8032 3.80251L18.1124 4.98667H19.4332C19.9665 4.96917 20.2015 5.72417 19.7557 6.01501L19.7565 6.01584ZM7.20652 2.09584C7.23342 1.97089 7.30237 1.85895 7.40187 1.77872C7.50136 1.69848 7.62537 1.65482 7.75319 1.65501H9.08235L9.39152 0.47084C9.53152 -0.14416 10.4699 -0.143326 10.6099 0.47084L10.919 1.65501H12.2399C12.7732 1.63751 13.0082 2.39251 12.5624 2.68334L11.5449 3.39417L11.9415 4.60001C12.1215 5.09084 11.5049 5.54834 11.0874 5.23584L9.99652 4.47584L8.90902 5.23584C8.49402 5.54751 7.88235 5.09751 8.05735 4.60834L8.44485 3.39501L7.42902 2.68751C7.33634 2.62303 7.26538 2.53197 7.22551 2.42634C7.18564 2.32071 7.17956 2.20548 7.20652 2.09584Z" fill="white"/>
</g>
<defs>
<clipPath id="clip0_1860_407">
<rect width="20" height="20" fill="white"/>
</clipPath>
</defs>
</svg>
