<svg width="16" height="17" viewBox="0 0 16 17" fill="none" xmlns="http://www.w3.org/2000/svg">
<path d="M7.9996 13.6612L4.12169 15.9973C3.95037 16.1063 3.77127 16.153 3.58439 16.1375C3.3975 16.1219 3.23397 16.0596 3.09381 15.9506C2.95364 15.8415 2.84462 15.7054 2.76675 15.5422C2.68888 15.379 2.67331 15.1959 2.72003 14.9928L3.74791 10.5776L0.313855 7.61072C0.158115 7.47055 0.0609338 7.31076 0.0223104 7.13135C-0.016313 6.95194 -0.0047883 6.77689 0.0568846 6.6062C0.118557 6.4355 0.212001 6.29534 0.337216 6.1857C0.46243 6.07606 0.633744 6.00597 0.851156 5.97545L5.38318 5.57831L7.13525 1.42007C7.21312 1.23318 7.33397 1.09301 7.49781 0.999571C7.66165 0.906127 7.82891 0.859406 7.9996 0.859406C8.17029 0.859406 8.33756 0.906127 8.50139 0.999571C8.66523 1.09301 8.78609 1.23318 8.86396 1.42007L10.616 5.57831L15.148 5.97545C15.3661 6.0066 15.5374 6.07668 15.662 6.1857C15.7866 6.29472 15.88 6.43488 15.9423 6.6062C16.0046 6.77751 16.0164 6.95287 15.9778 7.13228C15.9392 7.3117 15.8417 7.47117 15.6853 7.61072L12.2513 10.5776L13.2792 14.9928C13.3259 15.1952 13.3103 15.3784 13.2325 15.5422C13.1546 15.7061 13.0456 15.8422 12.9054 15.9506C12.7652 16.059 12.6017 16.1213 12.4148 16.1375C12.2279 16.1537 12.0488 16.1069 11.8775 15.9973L7.9996 13.6612Z" fill="#FFB133"/>
</svg>
