<svg width="120" height="150" viewBox="0 0 120 150" fill="none" xmlns="http://www.w3.org/2000/svg">
<path d="M24.9592 39.5063C17.7748 23.7031 27.6498 11.7813 37.5685 7.83126V7.85626C37.6904 6.32501 37.8904 4.94689 38.0998 3.78751C38.2995 2.71986 38.8673 1.75608 39.7044 1.064C40.5415 0.371917 41.5949 -0.00460178 42.681 1.13745e-05H72.0779C90.3685 1.13745e-05 102.372 21.3313 95.5779 40.0063L90.9342 52.7781H30.9935L24.9623 39.5094L24.9592 39.5063Z" fill="#0D3B8D"/>
<path d="M35.8718 40.7031C30.2968 28.4438 31.0812 17.6469 35.1374 8.98438C26.1468 13.7875 18.3655 25.0031 24.9593 39.5063L30.9905 52.775H41.3593L35.8718 40.7031Z" fill="#00286F"/>
<path d="M103.75 150H16.2498C13.9564 150.002 11.6908 149.497 9.61521 148.522C7.53962 147.546 5.70533 146.124 4.2436 144.356C2.77188 142.59 1.70868 140.521 1.13008 138.296C0.551488 136.072 0.471798 133.747 0.896719 131.488L5.33735 107.828C6.87172 99.5532 12.9061 93.0125 21.078 90.7656L42.7436 84.8625C54.0429 81.7844 65.9599 81.7844 77.2592 84.8625L98.9186 90.7656H98.9249C107.097 93.0125 113.131 99.5531 114.669 107.834L119.103 131.484C119.528 133.744 119.449 136.069 118.871 138.294C118.293 140.52 117.23 142.589 115.759 144.356C114.298 146.124 112.463 147.546 110.388 148.522C108.312 149.497 106.043 150.002 103.75 150Z" fill="#0099F1"/>
<path d="M113.125 140.625H25.6247C23.3313 140.627 21.0657 140.122 18.9901 139.147C16.9145 138.171 15.0802 136.749 13.6185 134.981C12.1468 133.215 11.0836 131.146 10.505 128.921C9.92637 126.697 9.84668 124.372 10.2716 122.113L14.7122 98.4531C15.0938 96.3918 15.7706 94.3963 16.7216 92.5281C13.7804 94.0381 11.2248 96.2026 9.25117 98.855C7.27756 101.507 5.93859 104.577 5.33723 107.828L0.896606 131.488C0.472783 133.747 0.553013 136.071 1.13156 138.296C1.71012 140.521 2.77271 142.59 4.24348 144.356C5.70522 146.124 7.53951 147.546 9.6151 148.522C11.6907 149.497 13.9563 150.002 16.2497 150H103.75C106.043 150.002 108.309 149.497 110.384 148.522C112.46 147.546 114.294 146.124 115.756 144.356C116.928 142.947 117.815 141.363 118.425 139.688C116.747 140.294 114.959 140.625 113.125 140.625Z" fill="#007DC6"/>
<path d="M56.875 100H63.125V150H56.875V100Z" fill="#007DC6"/>
<path d="M56.875 140.625H63.125V150H56.875V140.625Z" fill="#005CCC"/>
<path d="M38.125 125H28.75C27.9212 125 27.1263 124.671 26.5403 124.085C25.9542 123.499 25.625 122.704 25.625 121.875C25.625 121.046 25.9542 120.251 26.5403 119.665C27.1263 119.079 27.9212 118.75 28.75 118.75H38.125C38.9538 118.75 39.7487 119.079 40.3347 119.665C40.9208 120.251 41.25 121.046 41.25 121.875C41.25 122.704 40.9208 123.499 40.3347 124.085C39.7487 124.671 38.9538 125 38.125 125Z" fill="#EFF3F9"/>
<path d="M53.75 81.25H66.25C69.1227 81.25 71.9672 81.8158 74.6212 82.9151C77.2752 84.0145 79.6867 85.6258 81.718 87.6571C83.7492 89.6883 85.3605 92.0998 86.4599 94.7538C87.5592 97.4078 88.125 100.252 88.125 103.125C88.125 104.783 87.4665 106.372 86.2944 107.544C85.1223 108.717 83.5326 109.375 81.875 109.375H38.125C36.4674 109.375 34.8777 108.717 33.7056 107.544C32.5335 106.372 31.875 104.783 31.875 103.125C31.875 97.3234 34.1797 91.7594 38.282 87.6571C42.3844 83.5547 47.9484 81.25 53.75 81.25Z" fill="#7ED0FF"/>
<path d="M44.375 75.125V93.75C44.375 97.894 46.0212 101.868 48.9515 104.799C51.8817 107.729 55.856 109.375 60 109.375C64.144 109.375 68.1183 107.729 71.0485 104.799C73.9788 101.868 75.625 97.894 75.625 93.75V75.125H44.375Z" fill="#FFCDB4"/>
<path d="M44.375 93.75C44.375 94.7719 44.4875 95.7656 44.675 96.7313C45.6125 96.7969 46.5469 96.875 47.5 96.875C58.425 96.875 68.325 92.5406 75.625 85.5219V75.1219H44.375V93.75Z" fill="#F6A28D"/>
<path d="M88.1281 75H72.5C71.6712 75 70.8763 74.6708 70.2903 74.0847C69.7042 73.4987 69.375 72.7038 69.375 71.875C69.375 71.0462 69.7042 70.2514 70.2903 69.6653C70.8763 69.0793 71.6712 68.75 72.5 68.75H88.1281C89.8531 68.75 91.2531 67.3469 91.2531 65.625V56.25C91.2531 55.4212 91.5824 54.6264 92.1684 54.0403C92.7545 53.4543 93.5493 53.125 94.3781 53.125C95.2069 53.125 96.0018 53.4543 96.5878 54.0403C97.1739 54.6264 97.5031 55.4212 97.5031 56.25V65.625C97.5031 70.7938 93.2969 75 88.1281 75Z" fill="#AFB4C2"/>
<path d="M91.25 62.5H85C84.1712 62.5 83.3763 62.1708 82.7903 61.5847C82.2042 60.9987 81.875 60.2038 81.875 59.375V40.625C81.875 39.7962 82.2042 39.0013 82.7903 38.4153C83.3763 37.8292 84.1712 37.5 85 37.5H91.25C96.4187 37.5 100.625 41.7062 100.625 46.875V53.125C100.625 58.2938 96.4187 62.5 91.25 62.5ZM19.375 53.125V46.875C19.375 41.7062 23.5812 37.5 28.75 37.5H35C35.8288 37.5 36.6237 37.8292 37.2097 38.4153C37.7958 39.0013 38.125 39.7962 38.125 40.625V59.375C38.125 60.2038 37.7958 60.9987 37.2097 61.5847C36.6237 62.1708 35.8288 62.5 35 62.5H28.75C23.5812 62.5 19.375 58.2938 19.375 53.125Z" fill="#47CC6B"/>
<path d="M91.25 56.25H85C84.1712 56.25 83.3763 55.9208 82.7903 55.3347C82.2042 54.7487 81.875 53.9538 81.875 53.125V59.375C81.875 60.2038 82.2042 60.9987 82.7903 61.5847C83.3763 62.1708 84.1712 62.5 85 62.5H91.25C96.4187 62.5 100.625 58.2938 100.625 53.125V46.875C100.625 52.0438 96.4187 56.25 91.25 56.25ZM35 56.25H28.75C23.5812 56.25 19.375 52.0438 19.375 46.875V53.125C19.375 58.2938 23.5812 62.5 28.75 62.5H35C35.8288 62.5 36.6237 62.1708 37.2097 61.5847C37.7958 60.9987 38.125 60.2038 38.125 59.375V53.125C38.125 53.9538 37.7958 54.7487 37.2097 55.3347C36.6237 55.9208 35.8288 56.25 35 56.25Z" fill="#189C5F"/>
<path d="M31.875 62.5V40.625C31.875 37.3098 33.192 34.1304 35.5362 31.7862C37.8804 29.442 41.0598 28.125 44.375 28.125H75.625C78.9402 28.125 82.1196 29.442 84.4638 31.7862C86.808 34.1304 88.125 37.3098 88.125 40.625V62.5C88.1251 65.472 87.5398 68.415 86.4026 71.1608C85.2653 73.9066 83.5984 76.4015 81.4969 78.5031L76.0062 83.9938C73.9047 86.0954 71.4098 87.7625 68.664 88.8999C65.9182 90.0373 62.9752 90.6227 60.0031 90.6227C57.031 90.6227 54.0881 90.0373 51.3423 88.8999C48.5964 87.7625 46.1015 86.0954 44 83.9938L38.5094 78.5031C36.4079 76.4015 34.7409 73.9066 33.6037 71.1608C32.4664 68.415 31.8811 65.472 31.8812 62.5H31.875Z" fill="#FFCDB4"/>
<path d="M54.5842 83.3344L48.5436 77.2938C43.8754 72.6248 41.253 66.2929 41.2529 59.6906V35.6281C41.2529 32.8938 42.0748 30.3625 43.4498 28.2219C36.9873 28.7063 31.8779 34.0438 31.8779 40.6281V62.5031C31.8779 68.5063 34.2623 74.2625 38.5061 78.5063L43.9967 83.9969C46.0983 86.0984 48.5932 87.7653 51.339 88.9026C54.0848 90.0398 57.0278 90.6251 59.9998 90.625C62.0342 90.625 64.0311 90.3313 65.9592 89.8031C61.658 88.7012 57.7303 86.4676 54.5842 83.3344Z" fill="#F6A28D"/>
<path d="M88.1281 75H72.5C71.6712 75 70.8763 74.6708 70.2903 74.0847C69.7042 73.4987 69.375 72.7038 69.375 71.875C69.375 71.0462 69.7042 70.2514 70.2903 69.6653C70.8763 69.0793 71.6712 68.75 72.5 68.75H88.1281V75Z" fill="#AFB4C2"/>
<path d="M69.375 65.625H63.125C59.6732 65.625 56.875 68.4232 56.875 71.875C56.875 75.3268 59.6732 78.125 63.125 78.125H69.375C72.8268 78.125 75.625 75.3268 75.625 71.875C75.625 68.4232 72.8268 65.625 69.375 65.625Z" fill="#0D3B8D"/>
<path d="M72.4996 75H66.2496C64.592 75 63.0023 74.3415 61.8302 73.1694C60.6581 71.9973 59.9996 70.4076 59.9996 68.75C59.9996 67.8344 60.209 66.9719 60.5621 66.1875C59.2626 66.776 58.2036 67.7915 57.5612 69.0653C56.9188 70.3391 56.7318 71.7944 57.0312 73.1892C57.3306 74.5841 58.0985 75.8344 59.207 76.7323C60.3156 77.6303 61.698 78.1217 63.1246 78.125H69.3746C71.909 78.125 74.084 76.6094 75.0621 74.4375C74.2577 74.8051 73.3841 74.9969 72.4996 75Z" fill="#00286F"/>
</svg>
