<svg width="20" height="20" viewBox="0 0 20 20" fill="none" xmlns="http://www.w3.org/2000/svg">
<g clip-path="url(#clip0_1730_3304)">
<path d="M19.2057 14.3308L15.6073 17.61C13.9201 19.1494 11.718 20.002 9.43401 20H0.833178C0.612164 20 0.400202 19.9122 0.243922 19.7559C0.0876418 19.5996 -0.00015561 19.3877 -0.00015561 19.1667C-0.00015561 18.9456 0.0876418 18.7337 0.243922 18.5774C0.400202 18.4211 0.612164 18.3333 0.833178 18.3333H9.43318C11.3019 18.3349 13.1037 17.6372 14.484 16.3775L18.054 13.1258C18.3432 12.8358 18.4123 12.3392 18.184 12.0225C18.1134 11.922 18.0215 11.8383 17.915 11.7772C17.8084 11.7162 17.6897 11.6793 17.5673 11.6692C17.447 11.6604 17.3262 11.6775 17.2129 11.7191C17.0997 11.7608 16.9966 11.8262 16.9107 11.9108L13.3823 15.1492C12.9192 15.5886 12.305 15.8335 11.6665 15.8333H7.49984C7.27883 15.8333 7.06687 15.7455 6.91059 15.5892C6.75431 15.433 6.66651 15.221 6.66651 15C6.66651 14.779 6.75431 14.567 6.91059 14.4107C7.06687 14.2544 7.27883 14.1667 7.49984 14.1667H11.6665C11.8765 14.1667 12.4998 14.0708 12.4998 13.3333C12.4998 13.1123 12.412 12.9003 12.2558 12.7441C12.0995 12.5878 11.8875 12.5 11.6665 12.5H7.57318C6.5879 12.4976 5.61192 12.6904 4.70164 13.0675C3.79136 13.4445 2.96483 13.9983 2.26984 14.6967L1.43818 15.5742C1.36345 15.6558 1.27321 15.7217 1.17273 15.7681C1.07225 15.8144 0.963543 15.8403 0.852951 15.8442C0.742358 15.8481 0.632096 15.8299 0.5286 15.7908C0.425103 15.7516 0.330444 15.6922 0.250147 15.6161C0.16985 15.5399 0.105523 15.4485 0.0609208 15.3473C0.0163184 15.246 -0.0076664 15.1369 -0.00963389 15.0262C-0.0116014 14.9156 0.00848782 14.8056 0.0494614 14.7028C0.0904349 14.6 0.151472 14.5064 0.229011 14.4275L1.07651 13.535C1.92684 12.6772 2.93906 11.9968 4.05445 11.5333C5.16983 11.0698 6.36616 10.8324 7.57401 10.835H11.6673C12.6973 10.835 13.584 11.4617 13.9665 12.3533L15.759 10.7083C16.0129 10.4581 16.3181 10.2661 16.6535 10.1453C16.9888 10.0246 17.3464 9.97816 17.7015 10.0092C18.4348 10.0675 19.104 10.4467 19.5373 11.0492C20.2407 12.0275 20.0982 13.4375 19.2065 14.3317L19.2057 14.3308ZM3.33818 1.80165C3.32112 1.56143 3.35606 1.32035 3.44062 1.09486C3.52518 0.869365 3.65737 0.664757 3.82818 0.494986C3.99761 0.323476 4.20229 0.190829 4.42805 0.106224C4.65381 0.0216188 4.89525 -0.012924 5.13568 0.00498567C7.53318 0.174152 9.12318 1.00082 9.99984 2.59832C10.8773 1.00082 12.4665 0.174152 14.8648 0.00498567C15.1052 -0.0140545 15.3469 0.0199656 15.5727 0.104639C15.7985 0.189313 16.0029 0.322571 16.1715 0.494986C16.5182 0.840819 16.6965 1.31749 16.6615 1.80249C16.4023 5.47999 14.5948 7.25665 10.8332 7.47582V8.33249C10.8332 8.5535 10.7454 8.76546 10.5891 8.92174C10.4328 9.07802 10.2209 9.16582 9.99984 9.16582C9.77883 9.16582 9.56687 9.07802 9.41059 8.92174C9.25431 8.76546 9.16651 8.5535 9.16651 8.33249V7.47582C5.40484 7.25582 3.59734 5.47999 3.33818 1.80165ZM10.8598 5.80665C13.6607 5.61999 14.8048 4.44249 14.9998 1.68499C12.2257 1.86332 11.0465 3.00582 10.8598 5.80665ZM5.01734 1.66665C5.19568 4.44082 6.33818 5.61999 9.13901 5.80665C8.95234 3.00582 7.77484 1.86165 5.01734 1.66665Z" fill="white"/>
</g>
<defs>
<clipPath id="clip0_1730_3304">
<rect width="20" height="20" fill="white"/>
</clipPath>
</defs>
</svg>
