<svg width="20" height="20" viewBox="0 0 20 20" fill="none" xmlns="http://www.w3.org/2000/svg">
<g clip-path="url(#clip0_1730_3314)">
<path d="M14.1668 9.16668C14.1668 6.86918 12.2976 5.00001 10.0001 5.00001C7.70261 5.00001 5.83344 6.86918 5.83344 9.16668C5.83344 11.4642 7.70261 13.3333 10.0001 13.3333C12.2976 13.3333 14.1668 11.4642 14.1668 9.16668ZM7.50011 9.16668C7.50011 7.78834 8.62177 6.66668 10.0001 6.66668C11.3784 6.66668 12.5001 7.78834 12.5001 9.16668C12.5001 10.545 11.3784 11.6667 10.0001 11.6667C8.62177 11.6667 7.50011 10.545 7.50011 9.16668ZM15.7809 18.8733C15.8531 19.0792 15.8417 19.305 15.7493 19.5026C15.6569 19.7001 15.4909 19.8536 15.2867 19.9302C15.0825 20.0068 14.8564 20.0004 14.6569 19.9123C14.4574 19.8243 14.3003 19.6616 14.2193 19.4592C13.5918 17.7892 11.8959 16.6658 10.0001 16.6658C8.10427 16.6658 6.40761 17.7883 5.78094 19.4592C5.70314 19.6662 5.54631 19.8338 5.34494 19.9251C5.14358 20.0164 4.91417 20.0241 4.70719 19.9463C4.50021 19.8685 4.33261 19.7116 4.24127 19.5103C4.14992 19.3089 4.14231 19.0795 4.22011 18.8725C5.09094 16.5558 7.41344 14.9992 10.0009 14.9992C12.5884 14.9992 14.9109 16.5558 15.7818 18.8725L15.7809 18.8733ZM17.6559 14.2075C17.5958 14.299 17.5182 14.3777 17.4277 14.4391C17.3371 14.5005 17.2353 14.5435 17.1281 14.5656C17.0209 14.5876 16.9104 14.5884 16.8029 14.5677C16.6955 14.547 16.5931 14.5053 16.5018 14.445L15.4434 13.7483C15.1783 13.5715 14.9905 13.3002 14.9185 12.9897C14.8465 12.6793 14.8957 12.353 15.0559 12.0775C15.6968 10.9665 15.9531 9.67494 15.7851 8.40334C15.4551 5.78334 13.3076 3.66751 10.6801 3.37084C8.99094 3.18251 7.36927 3.69418 6.11427 4.81501C5.50215 5.36265 5.01233 6.03317 4.67677 6.78284C4.3412 7.53251 4.16743 8.3445 4.16677 9.16584C4.16608 10.1872 4.43392 11.1907 4.94344 12.0758C5.10337 12.3515 5.15249 12.6777 5.08085 12.9883C5.0092 13.2989 4.82215 13.5706 4.55761 13.7483L3.49844 14.445C3.40713 14.5054 3.30479 14.5472 3.19729 14.5679C3.0898 14.5887 2.97927 14.588 2.87204 14.5659C2.76481 14.5439 2.66299 14.5008 2.57242 14.4393C2.48186 14.3778 2.40432 14.299 2.34427 14.2075C2.22275 14.023 2.1795 13.7977 2.22403 13.5812C2.26857 13.3648 2.39725 13.1749 2.58177 13.0533L3.31511 12.5708C2.77851 11.5163 2.49896 10.3499 2.49927 9.16668C2.49927 7.97251 2.79427 6.81251 3.32511 5.76918L2.58094 5.27918C2.48956 5.21899 2.41093 5.14139 2.34954 5.05081C2.28816 4.96024 2.24521 4.85845 2.22315 4.75128C2.2011 4.64411 2.20037 4.53364 2.22101 4.42618C2.24165 4.31873 2.28325 4.21639 2.34344 4.12501C2.40363 4.03363 2.48123 3.955 2.5718 3.89361C2.66238 3.83223 2.76416 3.78928 2.87134 3.76722C2.97851 3.74517 3.08898 3.74444 3.19643 3.76508C3.30389 3.78572 3.40623 3.82732 3.49761 3.88751L4.24094 4.37668C4.47594 4.09334 4.72511 3.82084 5.00261 3.57251C6.16501 2.53856 7.61974 1.89097 9.16594 1.71918V0.832509C9.16594 0.611496 9.25374 0.399534 9.41002 0.243254C9.5663 0.0869734 9.77826 -0.000823975 9.99927 -0.000823975C10.2203 -0.000823975 10.4322 0.0869734 10.5885 0.243254C10.7448 0.399534 10.8326 0.611496 10.8326 0.832509V1.71251C10.8443 1.71334 10.8551 1.71251 10.8668 1.71418C12.8109 1.93334 14.5484 2.92918 15.7568 4.37584L16.5001 3.88584C16.6846 3.76863 16.9079 3.72863 17.1216 3.77447C17.3354 3.8203 17.5226 3.94831 17.6428 4.13088C17.7631 4.31345 17.8068 4.53597 17.7645 4.75046C17.7222 4.96496 17.5973 5.15424 17.4168 5.27751L16.6801 5.76251C17.0659 6.51168 17.3293 7.33084 17.4384 8.19334C17.6348 9.69465 17.3718 11.2202 16.6843 12.5692L17.4176 13.0525C17.6021 13.1741 17.7308 13.364 17.7753 13.5804C17.8199 13.7969 17.7766 14.0221 17.6551 14.2067L17.6559 14.2075Z" fill="white"/>
</g>
<defs>
<clipPath id="clip0_1730_3314">
<rect width="20" height="20" fill="white"/>
</clipPath>
</defs>
</svg>
